HIERARCHY
ROOT Hips
{
	OFFSET	0.00	0.00	0.00
	CHANNELS 6 Xposition Yposition Zposition Zrotation Xrotation Yrotation
	JOINT LeftUpLeg
	{
		OFFSET	 0.126116	-0.014019	-0.065224
		CHANNELS 3 Zrotation Xrotation Yrotation
		JOINT LeftLeg
		{
			OFFSET	 0.000000	 0.000000	 0.569914
			CHANNELS 3 Zrotation Xrotation Yrotation
			JOINT LeftFoot
			{
				OFFSET	 0.000000	 0.000000	 0.544423
				CHANNELS 3 Zrotation Xrotation Yrotation
				JOINT LeftToeBase
				{
					OFFSET	 0.000000	 0.000000	 0.207117
					CHANNELS 3 Zrotation Xrotation Yrotation
					End Site
					{
						OFFSET	 0.000000	 0.000000	 0.207117
					}
				}
			}
		}
	}
	JOINT RightUpLeg
	{
		OFFSET	-0.124023	-0.008373	-0.065224
		CHANNELS 3 Zrotation Xrotation Yrotation
		JOINT RightLeg
		{
			OFFSET	 0.000000	 0.000000	 0.570047
			CHANNELS 3 Zrotation Xrotation Yrotation
			JOINT RightFoot
			{
				OFFSET	 0.000000	 0.000000	 0.544354
				CHANNELS 3 Zrotation Xrotation Yrotation
				JOINT RightToeBase
				{
					OFFSET	 0.000000	 0.000000	 0.207540
					CHANNELS 3 Zrotation Xrotation Yrotation
					End Site
					{
						OFFSET	 0.000000	 0.000000	 0.207540
					}
				}
			}
		}
	}
	JOINT Spine
	{
		OFFSET	 0.000184	-0.007763	 0.117403
		CHANNELS 3 Zrotation Xrotation Yrotation
		JOINT Spine1
		{
			OFFSET	 0.000000	 0.000000	 0.137269
			CHANNELS 3 Zrotation Xrotation Yrotation
			JOINT Spine2
			{
				OFFSET	 0.000000	 0.000000	 0.156879
				CHANNELS 3 Zrotation Xrotation Yrotation
				JOINT LeftShoulder
				{
					OFFSET	 0.080501	-0.002496	 0.160144
					CHANNELS 3 Zrotation Xrotation Yrotation
					JOINT LeftArm
					{
						OFFSET	 0.000000	 0.000000	 0.164363
						CHANNELS 3 Zrotation Xrotation Yrotation
						JOINT LeftForeArm
						{
							OFFSET	 0.000000	 0.000000	 0.364576
							CHANNELS 3 Zrotation Xrotation Yrotation
							JOINT LeftHand
							{
								OFFSET	 0.000000	 0.000000	 0.360812
								CHANNELS 3 Zrotation Xrotation Yrotation
								JOINT LeftHandIndex1
								{
									OFFSET	 0.000000	 0.000000	 0.086006
									CHANNELS 3 Zrotation Xrotation Yrotation
									JOINT LeftHandIndex2
									{
										OFFSET	 0.000000	 0.000000	 0.047236
										CHANNELS 3 Zrotation Xrotation Yrotation
										JOINT LeftHandIndex3
										{
											OFFSET	-0.004284	-0.000551	 0.038166
											CHANNELS 3 Zrotation Xrotation Yrotation
											End Site
											{
												OFFSET	-0.004284	-0.000551	 0.038166
											}
										}
									}
								}
							}
						}
					}
				}
				JOINT Neck
				{
					OFFSET	 0.000000	 0.000000	 0.176489
					CHANNELS 3 Zrotation Xrotation Yrotation
					JOINT Head
					{
						OFFSET	 0.000000	-0.001747	 0.077940
						CHANNELS 3 Zrotation Xrotation Yrotation
						End Site
						{
							OFFSET	 0.000000	-0.001747	 0.077940
						}
					}
				}
				JOINT RightShoulder
				{
					OFFSET	-0.080363	 0.000306	 0.159706
					CHANNELS 3 Zrotation Xrotation Yrotation
					JOINT RightArm
					{
						OFFSET	 0.000000	 0.000000	 0.164196
						CHANNELS 3 Zrotation Xrotation Yrotation
						JOINT RightForeArm
						{
							OFFSET	 0.000000	 0.000000	 0.365611
							CHANNELS 3 Zrotation Xrotation Yrotation
							JOINT RightHand
							{
								OFFSET	 0.000000	 0.000000	 0.360648
								CHANNELS 3 Zrotation Xrotation Yrotation
								JOINT RightHandIndex1
								{
									OFFSET	 0.000000	 0.000000	 0.069977
									CHANNELS 3 Zrotation Xrotation Yrotation
									JOINT RightHandIndex2
									{
										OFFSET	 0.000000	 0.000000	 0.052305
										CHANNELS 3 Zrotation Xrotation Yrotation
										JOINT RightHandIndex3
										{
											OFFSET	 0.009002	-0.000782	 0.042196
											CHANNELS 3 Zrotation Xrotation Yrotation
											End Site
											{
												OFFSET	 0.009002	-0.000782	 0.042196
											}
										}
									}
								}
							}
						}
					}
				}
			}
		}
	}
}
MOTION
Frames:    13
Frame Time: 0.03333334
-0.058240	-2.246333	 1.244646	 4.322552	-1.585618	-3.113798	 1.101684	-6.963843	-171.877200	 0.506430	-28.832860	 0.060334	 22.428450	 70.716840	-25.401660	-2.370889	 31.363730	-0.064246	-4.421470	-29.701410	-175.611500	 10.084490	-51.440400	 8.517704	 8.438580	 63.683220	-4.287420	 2.358124	 33.124470	 0.106118	-10.734390	 8.924160	 1.788130	-0.806408	 2.293208	 0.156221	-0.884948	-2.260283	-0.353481	-93.816030	 58.903320	 175.656500	 17.843750	 37.806910	-39.641120	-15.000940	 2.394528	-9.456792	 9.266503	-49.530320	 1.907369	-4.869352	 19.242470	-2.786460	-3.888878	 21.378690	 2.210220	-4.808246	 5.545631	 0.146960	-0.111990	-5.032045	 0.165746	-3.068824	 2.316924	 2.683890	 89.817390	 61.600640	-179.916000	-20.552290	 52.564950	 11.529010	 12.259150	 2.939256	 20.001050	-16.346040	-34.551050	-6.014374	 6.301347	 25.669250	-0.566661	 1.774489	 45.582440	-6.893916	 0.401968	 24.818780	 3.631746
-0.059482	-2.274739	 1.244521	 4.933829	-1.250956	-3.050630	 0.382391	-5.736165	-172.131500	 0.842493	-28.360740	 0.232658	 22.662420	 71.431300	-25.955390	-2.369788	 31.548990	-0.068435	-5.728835	-31.526470	-175.680500	 9.967573	-47.884740	 7.998045	 9.145514	 64.885350	-5.594177	 2.358758	 33.031980	 0.103962	-11.095260	 8.765064	 1.766580	-1.041572	 2.237040	-0.085232	-0.482648	-2.327366	-0.072516	-93.930770	 58.994930	 175.400600	 17.215710	 36.199810	-40.937810	-15.636410	 2.405527	-9.465448	 9.091059	-48.861250	 0.655451	-4.869071	 19.248190	-2.786527	-3.884285	 21.437540	 2.205558	-4.808269	 5.545394	 0.146973	-0.077669	-5.073004	 0.183230	-2.561409	 2.262544	 2.578393	 89.781330	 61.646470	 179.998200	-20.296490	 53.209520	 10.324740	 12.109700	 2.892213	 19.603660	-16.749610	-33.167650	-6.092164	 6.294057	 24.883620	-0.541380	 1.884089	 44.712070	-6.991861	 0.532430	 24.249150	 3.565147
-0.060640	-2.299853	 1.243654	 5.415501	-0.837350	-3.025617	-0.158511	-4.787704	-172.329100	 1.043819	-27.978420	 0.324233	 22.864700	 72.038680	-26.320560	-2.368949	 31.689500	-0.071617	-6.993903	-33.057730	-175.846600	 10.002060	-44.254190	 7.554240	 9.321966	 65.532290	-6.339838	 2.358967	 33.001310	 0.103250	-11.285390	 8.461204	 1.681682	-1.241178	 2.299387	-0.156383	-0.147437	-2.438955	 0.102377	-94.043770	 59.017750	 175.156400	 16.512120	 34.782860	-41.997820	-15.914810	 2.410840	-9.467953	 9.408985	-48.076230	 0.053523	-4.866270	 19.323980	-2.792312	-3.878282	 21.514270	 2.199466	-4.806164	 5.570241	 0.145520	-0.052073	-5.095417	 0.212524	-2.149617	 2.219226	 2.522682	 89.739990	 61.696920	 179.899500	-20.040860	 53.759240	 9.169108	 11.822500	 2.835653	 19.492860	-17.181450	-31.733830	-6.117299	 6.283677	 24.075230	-0.544271	 1.982007	 43.908470	-7.078946	 0.693045	 23.539810	 3.484622
-0.061936	-2.325492	 1.242158	 5.882142	-0.378418	-3.015474	-0.683713	-3.886382	-172.526400	 1.204203	-27.644280	 0.395095	 23.057720	 72.681770	-26.630640	-2.368145	 31.822920	-0.074641	-8.351476	-34.356320	-176.148500	 9.998530	-40.113750	 6.978332	 10.003790	 66.358000	-7.681057	 2.359051	 32.988820	 0.102962	-11.414210	 8.160674	 1.601790	-1.433425	 2.277485	-0.237277	 0.171571	-2.511794	 0.277980	-94.162130	 59.019950	 174.903500	 15.762910	 33.366590	-43.018190	-16.080410	 2.414654	-9.473247	 9.875100	-47.075200	-0.415728	-4.862503	 19.426080	-2.800246	-3.871517	 21.600650	 2.192578	-4.803257	 5.604408	 0.143522	-0.027953	-5.113001	 0.247085	-1.759791	 2.175182	 2.479643	 89.694960	 61.751510	 179.791400	-19.747800	 54.282990	 7.985675	 11.476050	 2.769965	 19.421550	-17.608570	-30.074640	-6.075115	 6.271583	 23.218020	-0.556342	 2.079264	 43.084850	-7.165047	 0.869726	 22.749150	 3.397935
-0.063118	-2.351545	 1.240169	 6.162871	 0.062293	-3.133077	-1.003435	-2.857609	-172.599400	 1.321118	-27.198740	 0.442668	 23.538630	 73.479520	-27.206250	-2.366941	 32.018140	-0.079087	-9.175836	-35.334670	-176.318000	 9.968839	-35.599960	 6.292855	 10.295060	 65.689900	-8.711405	 2.360046	 32.840360	 0.099525	-11.375760	 7.811120	 1.648070	-1.603618	 2.380618	-0.314096	 0.491529	-2.595472	 0.435529	-94.266840	 58.989370	 174.684800	 14.962910	 32.004710	-44.028080	-16.462650	 2.418065	-9.470790	 10.523270	-45.889530	-0.170197	-4.855138	 19.601620	-2.809234	-3.861915	 21.722860	 2.182826	-4.797583	 5.671319	 0.139601	-0.014869	-5.145166	 0.280497	-1.406796	 2.131838	 2.480147	 89.630540	 61.830470	 179.636200	-19.355740	 54.756040	 6.937565	 10.922800	 2.658440	 19.138480	-18.233440	-28.094500	-6.216231	 6.255688	 22.246860	-0.585486	 2.169340	 42.298690	-7.244394	 1.081146	 21.789060	 3.296886
-0.064396	-2.377634	 1.237796	 6.381986	 0.490936	-3.293517	-1.344934	-1.826897	-172.619600	 1.423040	-26.784600	 0.482372	 24.028470	 74.374660	-27.871170	-2.365591	 32.232120	-0.083977	-9.821097	-36.023890	-176.491300	 9.953790	-30.987740	 5.562598	 10.549620	 64.608760	-9.703385	 2.361328	 32.648180	 0.095078	-11.268170	 7.448426	 1.731608	-1.767053	 2.485386	-0.387864	 0.793078	-2.663427	 0.580899	-94.366130	 58.948230	 174.479500	 14.225350	 30.739760	-44.944050	-16.903750	 2.420996	-9.469567	 11.158210	-44.499620	 0.233371	-4.846592	 19.799970	-2.818528	-3.851434	 21.855910	 2.172176	-4.791025	 5.748484	 0.135069	-0.005553	-5.181906	 0.313275	-1.084845	 2.088250	 2.494568	 89.560550	 61.916850	 179.466600	-18.903840	 55.150610	 6.094189	 10.313320	 2.531827	 18.461490	-18.856890	-25.881080	-6.353312	 6.238238	 21.246470	-0.620027	 2.254732	 41.531800	-7.319262	 1.299622	 20.780980	 3.195609
-0.066110	-2.407390	 1.234622	 6.489485	 0.781278	-3.457380	-1.547095	-0.421652	-172.684600	 1.493467	-26.385480	 0.507015	 24.502250	 75.182540	-28.406730	-2.362025	 32.783230	-0.096640	-9.526029	-36.639130	-176.406000	 9.690226	-26.592420	 4.718866	 14.152140	 66.306720	-13.791810	 2.357185	 33.259780	 0.109270	-11.110980	 7.098336	 1.852076	-1.937258	 2.798156	-0.491070	 1.143921	-2.775868	 0.747208	-94.434520	 58.903100	 174.341100	 13.314000	 29.635960	-45.821770	-17.307440	 2.420981	-9.461291	 11.567880	-42.419940	 0.474627	-4.835015	 20.034790	-2.821681	-3.836218	 22.048190	 2.156718	-4.779710	 5.881396	 0.127236	 0.010016	-5.234803	 0.331952	-0.723134	 2.018819	 2.492005	 89.494750	 61.984320	 179.306400	-18.202760	 55.452580	 5.344763	 9.539604	 2.386606	 17.122460	-19.530390	-23.226220	-6.685571	 6.215083	 20.017350	-0.669070	 2.407948	 40.100720	-7.452685	 1.565687	 19.531790	 3.076715
-0.067937	-2.433612	 1.230757	 6.551867	 0.987491	-3.598577	-1.709933	 0.861322	-172.756500	 1.546651	-26.136340	 0.526000	 24.966690	 75.935830	-28.916190	-2.358326	 33.327890	-0.109289	-8.873769	-37.951240	-176.181300	 9.522474	-24.368180	 4.279811	 19.497040	 68.816380	-19.422370	 2.352111	 33.971850	 0.125989	-10.940410	 6.809613	 1.959328	-2.073708	 3.119224	-0.568554	 1.430039	-2.885439	 0.878615	-94.483920	 58.864370	 174.242300	 12.563930	 28.804480	-46.566930	-17.626500	 2.419504	-9.454019	 11.796430	-40.364830	 0.559696	-4.824584	 20.240050	-2.822800	-3.822260	 22.223610	 2.142540	-4.769053	 6.006350	 0.119851	 0.024607	-5.283014	 0.344020	-0.430464	 1.953940	 2.485758	 89.440960	 62.035990	 179.175100	-17.535390	 55.655150	 4.565361	 8.823329	 2.283320	 16.165310	-20.016820	-20.750390	-6.946079	 6.193679	 18.933650	-0.713702	 2.546839	 38.739070	-7.572529	 1.796779	 18.427910	 2.977521
-0.070447	-2.464424	 1.225417	 6.698503	 1.045757	-3.716594	-1.990008	 2.522425	-172.901500	 1.662795	-25.924340	 0.572825	 24.838920	 76.478350	-28.867080	-2.348874	 34.621390	-0.139800	-8.616899	-39.961890	-176.127900	 9.863732	-23.276880	 4.238420	 21.816450	 68.885530	-22.415900	 2.343758	 35.061430	 0.152000	-10.866860	 6.794188	 2.058734	-2.219005	 3.242362	-0.632950	 1.741396	-3.031553	 1.007563	-94.517500	 58.878680	 174.168600	 11.670500	 28.219190	-47.257630	-17.659530	 2.412375	-9.438860	 11.816770	-38.295570	 0.108777	-4.832891	 20.378440	-2.911258	-3.805857	 22.428900	 2.125880	-4.752003	 6.205832	 0.108012	 0.063256	-5.339185	 0.350355	-0.084829	 1.913217	 2.372910	 89.397350	 62.010990	 179.070500	-16.674800	 55.810870	 3.182916	 8.091586	 2.191933	 15.683490	-20.263450	-18.079230	-7.175637	 6.177477	 17.658170	-0.709583	 2.708924	 37.067990	-7.710941	 2.062151	 17.139130	 2.868411
-0.072879	-2.492507	 1.220332	 6.838233	 1.075018	-3.817249	-2.253937	 4.029579	-173.044100	 1.771926	-25.774570	 0.617216	 24.619380	 76.970290	-28.715850	-2.339003	 35.844970	-0.169365	-8.435594	-41.870940	-176.120000	 10.269120	-22.977270	 4.350158	 23.883410	 68.992810	-25.130050	 2.335477	 36.058400	 0.176291	-10.797790	 6.816076	 2.142942	-2.347678	 3.267636	-0.692029	 1.990957	-3.140954	 1.114598	-94.544580	 58.898170	 174.107900	 10.964280	 27.809230	-47.767440	-17.643130	 2.404428	-9.426208	 11.797840	-36.361470	-0.396548	-4.842424	 20.489790	-2.999799	-3.791203	 22.611220	 2.111001	-4.736300	 6.389064	 0.097071	 0.100060	-5.389038	 0.355148	 0.198707	 1.880150	 2.260634	 89.360750	 61.979090	 178.983200	-15.890770	 55.895280	 1.949349	 7.437983	 2.118130	 15.270410	-20.350760	-15.592240	-7.316879	 6.164432	 16.524450	-0.699933	 2.846627	 35.574680	-7.827201	 2.294151	 15.994420	 2.777355
-0.075952	-2.521686	 1.215368	 6.956537	 1.059731	-3.677497	-2.557459	 5.492163	-173.447700	 2.008164	-25.896740	 0.723178	 22.819830	 76.772980	-27.027130	-2.317203	 38.209600	-0.228626	-8.319139	-43.303230	-176.427600	 10.172880	-22.696150	 4.261644	 20.390410	 66.693600	-21.633950	 2.336663	 35.920260	 0.172894	-10.770550	 6.794004	 2.069678	-2.451615	 3.388538	-0.834357	 2.217034	-3.221500	 1.229974	-94.534820	 59.036580	 174.105700	 10.264770	 27.656060	-48.187200	-17.637620	 2.393981	-9.406499	 11.572480	-34.448670	-1.107185	-4.858570	 20.543390	-3.109293	-3.778795	 22.765010	 2.098396	-4.714977	 6.637120	 0.082181	 0.137239	-5.433173	 0.320767	 0.496828	 1.879659	 2.185406	 89.357350	 61.835480	 178.980500	-15.257840	 55.853920	 0.677952	 6.855802	 2.042875	 15.260180	-20.350440	-13.127080	-7.329678	 6.172650	 15.384270	-0.582622	 2.929589	 34.640840	-7.896606	 2.517031	 14.879430	 2.693770
-0.079538	-2.556452	 1.210576	 7.093771	 1.031379	-3.482934	-2.883361	 7.135458	-173.948800	 2.272354	-26.124840	 0.845521	 20.542740	 76.464120	-24.841340	-2.285299	 41.083820	-0.305079	-8.176709	-43.985090	-176.834700	 9.927988	-22.011540	 4.045367	 17.271480	 64.186360	-18.350310	 2.338716	 35.677180	 0.166939	-10.738650	 6.769150	 1.955580	-2.584678	 3.385279	-1.028006	 2.441136	-3.241871	 1.360681	-94.519840	 59.202410	 174.110000	 9.612243	 27.592900	-48.398010	-17.627170	 2.379641	-9.380427	 11.313770	-32.118650	-1.957841	-4.877189	 20.600940	-3.235049	-3.764910	 22.936210	 2.084314	-4.689695	 6.930069	 0.064465	 0.180095	-5.481584	 0.278990	 0.809668	 1.884760	 2.107732	 89.356030	 61.662850	 178.983600	-14.555660	 55.726230	-0.341195	 6.199205	 1.989618	 14.569640	-20.246470	-10.184910	-7.289784	 6.187670	 14.075840	-0.435610	 3.017791	 33.618510	-7.969843	 2.768002	 13.606620	 2.604346
-0.083283	-2.588876	 1.207202	 7.223484	 0.856855	-3.002046	-2.932408	 8.832938	-174.823100	 2.012397	-26.409400	 0.738358	 17.265860	 75.213550	-21.061780	-2.224930	 45.354680	-0.429799	-7.337621	-43.374450	-177.163200	 8.115019	-21.501980	 3.274906	 12.933850	 61.225850	-11.709550	 2.339853	 35.540810	 0.163615	-10.765100	 6.802656	 1.525361	-2.736370	 3.413356	-1.131014	 2.593319	-3.162404	 1.391921	-94.484310	 59.292930	 174.171000	 9.163419	 27.590510	-48.361450	-17.724210	 2.366218	-9.355524	 11.191420	-29.517230	-2.509597	-4.885991	 20.662490	-3.305950	-3.758929	 23.009790	 2.078237	-4.660720	 7.264193	 0.044084	 0.223024	-5.478440	 0.258757	 1.068352	 1.959885	 2.216162	 89.354730	 61.532990	 178.985500	-14.088450	 55.528740	-0.632440	 5.706719	 1.996731	 13.371480	-20.182380	-7.637529	-7.023201	 6.230925	 12.952580	-0.181714	 3.079602	 32.883580	-8.020793	 2.960299	 12.619470	 2.539256
